<svg width="198" height="33" viewBox="0 0 198 33" fill="none" xmlns="http://www.w3.org/2000/svg">
<path d="M88.8328 0H195.994C196.526 0 197.036 0.214771 197.412 0.597066C197.789 0.979361 198 1.49786 198 2.03851V30.9615C198 31.5021 197.789 32.0206 197.412 32.4029C197.036 32.7852 196.526 33 195.994 33H88.8328V0Z" fill="#FBC02D"/>
<path d="M101.55 24.6955C100.833 24.6957 100.117 24.6489 99.4058 24.5555C98.7438 24.4735 98.0961 24.299 97.4811 24.0368C96.9439 23.8154 96.4712 23.4583 96.1078 22.9993C95.7461 22.497 95.5658 21.8833 95.5973 21.2617V6.21924H99.3446V13.4189L98.6298 12.1947C98.9536 11.8167 99.3566 11.5172 99.8092 11.3181C100.278 11.1067 100.77 10.9535 101.274 10.8617C101.681 10.7859 102.092 10.7425 102.505 10.732C104.424 10.732 105.885 11.3198 106.885 12.4956C107.886 13.6713 108.386 15.3882 108.386 17.6463C108.417 18.7821 108.244 19.9141 107.876 20.9868C107.582 21.8195 107.089 22.5647 106.441 23.1549C105.813 23.6993 105.076 24.0992 104.281 24.3272C103.393 24.5814 102.473 24.7054 101.55 24.6955ZM101.499 21.464C102.129 21.4948 102.754 21.336 103.296 21.0075C103.741 20.6996 104.079 20.2566 104.261 19.7419C104.464 19.1467 104.562 18.5199 104.552 17.8901C104.584 17.0801 104.453 16.2719 104.169 15.5144C103.963 14.9839 103.594 14.5347 103.117 14.2332C102.649 13.9698 102.121 13.8357 101.586 13.8442C101.206 13.8475 100.828 13.8909 100.458 13.9739C100.069 14.0531 99.6946 14.1949 99.3497 14.394V20.2346C99.3417 20.3704 99.3632 20.5062 99.4126 20.6326C99.462 20.759 99.5381 20.8728 99.6356 20.966C99.8593 21.1588 100.128 21.2893 100.417 21.3447C100.769 21.4246 101.128 21.4646 101.489 21.464H101.499Z" fill="white"/>
<path d="M116.881 24.6955C114.693 24.6955 113.046 24.1007 111.939 22.9112C110.833 21.7216 110.28 19.9684 110.28 17.6515C110.28 15.1652 110.842 13.3791 111.965 12.2933C113.088 11.2075 114.727 10.6628 116.881 10.6594C118.142 10.6179 119.395 10.8736 120.542 11.4063C121.517 11.8908 122.303 12.6948 122.773 13.6886C123.324 14.9324 123.584 16.2886 123.534 17.6515C123.534 19.9649 122.96 21.7182 121.813 22.9112C120.666 24.1042 119.022 24.699 116.881 24.6955ZM116.881 21.5833C117.442 21.606 117.994 21.446 118.459 21.1268C118.901 20.7902 119.232 20.3255 119.408 19.7938C119.641 19.1013 119.75 18.3724 119.73 17.6411C119.758 16.8584 119.649 16.0769 119.408 15.3329C119.241 14.8227 118.901 14.3891 118.449 14.1088C117.969 13.8427 117.428 13.712 116.881 13.7301C116.319 13.7063 115.761 13.8448 115.273 14.1295C114.839 14.4253 114.517 14.8626 114.359 15.3692C114.142 16.109 114.043 16.8798 114.068 17.6515C114.068 18.9742 114.293 19.9649 114.747 20.6133C114.992 20.9473 115.316 21.2124 115.69 21.3839C116.063 21.5554 116.473 21.6276 116.881 21.5937V21.5833Z" fill="white"/>
<path d="M132.034 24.6955C129.839 24.6955 128.195 24.1042 127.087 22.9112C125.979 21.7182 125.433 19.9649 125.433 17.6515C125.433 15.1652 125.994 13.3791 127.118 12.2933C128.241 11.2075 129.88 10.6628 132.034 10.6594C133.295 10.6179 134.548 10.8736 135.695 11.4063C136.668 11.8924 137.454 12.6959 137.926 13.6886C138.476 14.9324 138.737 16.2886 138.686 17.6515C138.686 19.9649 138.113 21.7182 136.966 22.9112C135.819 24.1042 134.175 24.699 132.034 24.6955ZM132.034 21.5833C132.594 21.606 133.147 21.446 133.612 21.1268C134.054 20.7902 134.385 20.3255 134.561 19.7938C134.793 19.1013 134.902 18.3724 134.883 17.6411C134.911 16.8584 134.802 16.0769 134.561 15.3329C134.387 14.8314 134.048 14.4064 133.601 14.1295C133.122 13.8635 132.58 13.7327 132.034 13.7509C131.478 13.726 130.926 13.8609 130.441 14.1399C130.005 14.4342 129.683 14.872 129.527 15.3796C129.307 16.119 129.207 16.8898 129.231 17.6619C129.16 18.6967 129.398 19.7293 129.915 20.6237C130.16 20.9534 130.482 21.2151 130.852 21.3847C131.223 21.5542 131.629 21.6261 132.034 21.5937V21.5833Z" fill="white"/>
<path d="M145.129 24.3065H141.31V6.12073H145.16L145.129 24.3065ZM144.307 17.0447L149.086 11.121H153.732L146.518 18.8549L144.307 17.0447ZM147.212 15.3485L154.074 24.3065H149.219L144.491 17.9679L147.212 15.3485Z" fill="white"/>
<path d="M156.427 9.30555V6.30225H160.384V9.30555H156.427ZM156.504 24.3065V11.287H160.333L160.358 24.3065H156.504Z" fill="white"/>
<path d="M163.774 12.2259C164.188 12.021 164.616 11.8476 165.055 11.7072C165.63 11.5134 166.214 11.3523 166.806 11.2248C167.439 11.0848 168.072 10.9706 168.716 10.8825C169.308 10.8014 169.905 10.7581 170.503 10.7528C171.513 10.7302 172.52 10.8846 173.479 11.2092C174.253 11.4758 174.917 11.9958 175.368 12.6876C175.846 13.5248 176.073 14.4857 176.021 15.4522V24.3221H172.198V16.2044C172.202 15.894 172.154 15.5851 172.055 15.2914C171.968 15.0221 171.823 14.7759 171.631 14.5705C171.414 14.3553 171.15 14.1953 170.86 14.1036C170.479 13.9812 170.08 13.9234 169.681 13.9324C169.282 13.9324 168.884 13.9812 168.496 14.0777C168.186 14.1423 167.885 14.2432 167.598 14.3785V24.291H163.774V12.2259Z" fill="white"/>
<path d="M184.394 24.6956C183.323 24.6629 182.274 24.377 181.331 23.8605C180.473 23.3648 179.784 22.6158 179.355 21.713C178.845 20.5895 178.602 19.36 178.646 18.1236C178.613 16.8903 178.797 15.6609 179.187 14.4927C179.487 13.6212 180.004 12.8437 180.688 12.2363C181.367 11.678 182.164 11.2858 183.016 11.0899C184.008 10.8516 185.024 10.7366 186.043 10.7476C187.001 10.7289 187.955 10.8709 188.867 11.1678C189.587 11.3903 190.235 11.804 190.745 12.366C191.193 12.9038 191.43 13.5911 191.409 14.2955V24.4725C191.427 25.3065 191.279 26.1356 190.975 26.9105C190.692 27.6023 190.247 28.2132 189.678 28.6896C189.063 29.1887 188.354 29.5557 187.595 29.7685C186.681 30.0271 185.736 30.1511 184.787 30.1368C183.802 30.1512 182.817 30.0678 181.847 29.8878C181.199 29.7795 180.571 29.5732 179.983 29.2757V25.8575C180.239 25.9612 180.616 26.1013 181.112 26.2724C181.657 26.4586 182.215 26.6026 182.781 26.703C183.391 26.8162 184.009 26.8735 184.629 26.8741C185.267 26.9063 185.904 26.791 186.493 26.537C186.892 26.3471 187.215 26.0227 187.406 25.6189C187.583 25.2086 187.67 24.7645 187.662 24.3169V22.1695L188.407 22.7141C188.136 23.1083 187.807 23.4581 187.432 23.7515C187.034 24.0591 186.587 24.2943 186.11 24.4466C185.553 24.6164 184.975 24.7003 184.394 24.6956ZM185.369 21.7753C185.786 21.7796 186.201 21.7308 186.605 21.63C186.981 21.5351 187.343 21.3904 187.682 21.1995V15.167C187.692 15.0137 187.67 14.8599 187.617 14.7159C187.565 14.572 187.482 14.4411 187.376 14.3319C187.156 14.1367 186.891 14.0027 186.605 13.9428C186.284 13.8734 185.957 13.8386 185.63 13.8391C184.969 13.7978 184.314 13.9802 183.766 14.3578C183.299 14.7232 182.957 15.2299 182.791 15.805C182.584 16.485 182.484 17.194 182.495 17.9057C182.44 18.9171 182.721 19.9179 183.292 20.7482C183.532 21.0759 183.846 21.3402 184.207 21.5189C184.569 21.6976 184.967 21.7855 185.369 21.7753Z" fill="white"/>
<path d="M13.5036 24.6956C12.564 24.7058 11.6271 24.5925 10.7161 24.3584C9.90835 24.1556 9.15727 23.7669 8.52079 23.2225C7.86539 22.6312 7.3668 21.8821 7.07088 21.0439C6.69477 19.9372 6.52173 18.7698 6.56034 17.5997C6.56034 15.4626 7.07088 13.7751 8.09194 12.5371C9.11301 11.2992 10.6667 10.6819 12.7531 10.6854C13.0288 10.6854 13.3862 10.7113 13.8354 10.7528C14.3085 10.8012 14.7734 10.9111 15.219 11.0796C15.7141 11.2612 16.1565 11.5662 16.5055 11.9666L15.7193 13.1648V5.67468H19.5177V20.8727C19.5313 21.4744 19.3522 22.0642 19.0071 22.5533C18.6453 23.0513 18.1754 23.4578 17.6338 23.7412C17.03 24.0645 16.386 24.3035 15.7193 24.4518C14.9916 24.6146 14.2487 24.6963 13.5036 24.6956ZM13.6568 21.4381C14.1785 21.4597 14.6993 21.3751 15.1884 21.1891C15.3403 21.1346 15.4725 21.0345 15.5673 20.9021C15.6621 20.7696 15.7151 20.6111 15.7193 20.4474V14.363C15.4067 14.1887 15.074 14.0546 14.7289 13.9636C14.3966 13.8682 14.0531 13.8194 13.7078 13.8183C13.0795 13.7988 12.4549 13.9229 11.8801 14.1814C11.3726 14.4377 10.9762 14.8755 10.7671 15.4108C10.4892 16.1499 10.3624 16.9388 10.3944 17.7294C10.3786 18.3998 10.4824 19.0676 10.7008 19.7004C10.8905 20.2315 11.25 20.6826 11.7218 20.9817C12.3173 21.3204 12.9959 21.4788 13.6772 21.4381H13.6568Z" fill="#263238"/>
<path d="M22.928 9.30555V6.30225H26.8846V9.30555H22.928ZM23.0046 24.3065V11.287H26.8336V24.3065H23.0046Z" fill="#263238"/>
<path d="M35.2574 24.6955C34.1862 24.6636 33.1372 24.3776 32.1942 23.8604C31.3362 23.3635 30.6459 22.615 30.2133 21.713C29.7075 20.5882 29.4663 19.3593 29.5088 18.1235C29.4739 16.8901 29.6572 15.6603 30.05 14.4926C30.3458 13.6192 30.8636 12.8408 31.5509 12.2362C32.2284 11.678 33.0232 11.2858 33.8739 11.0899C34.8674 10.8518 35.8857 10.7369 36.9064 10.7475C37.8638 10.7292 38.8177 10.8712 39.7297 11.1677C40.4489 11.3888 41.0961 11.8027 41.6033 12.3659C42.053 12.9032 42.2912 13.5905 42.2721 14.2955V24.4725C42.2897 25.3064 42.1422 26.1355 41.8382 26.9104C41.5538 27.6012 41.1089 28.2117 40.5414 28.6895C39.9248 29.1866 39.2166 29.5534 38.4585 29.7684C37.5429 30.027 36.5956 30.1511 35.6454 30.1367C34.6596 30.1509 33.6747 30.0675 32.7047 29.8877C32.0586 29.7796 31.4321 29.5732 30.8464 29.2757V25.8574C31.1017 25.9611 31.4795 26.1012 31.9747 26.2724C32.5193 26.4598 33.0775 26.6038 33.6441 26.7029C34.2538 26.8164 34.8724 26.8737 35.4923 26.8741C36.1305 26.9057 36.7675 26.7904 37.3557 26.5369C37.7539 26.3467 38.075 26.0223 38.2645 25.6188C38.4442 25.2095 38.5331 24.765 38.5248 24.3169V22.1694L39.2651 22.714C38.9953 23.1094 38.6663 23.4595 38.29 23.7515C37.8927 24.0601 37.4451 24.2953 36.9677 24.4465C36.4131 24.616 35.8366 24.6999 35.2574 24.6955ZM36.2325 21.7752C36.6471 21.7798 37.0605 21.731 37.4629 21.63C37.8406 21.5351 38.2045 21.3903 38.5452 21.1994V15.1669C38.5547 15.0132 38.5318 14.8592 38.4781 14.7152C38.4244 14.5713 38.3411 14.4405 38.2338 14.3318C38.0154 14.1349 37.7493 14.0006 37.4629 13.9428C37.1424 13.8729 36.8155 13.8382 36.4878 13.839C35.8274 13.7986 35.1723 13.9809 34.6244 14.3577C34.1598 14.726 33.8191 15.2317 33.6492 15.8049C33.4462 16.4857 33.348 17.1944 33.3582 17.9057C33.3042 18.9161 33.5826 19.9161 34.1496 20.7482C34.3902 21.0766 34.7051 21.3413 35.0676 21.5201C35.4302 21.6988 35.8297 21.7863 36.2325 21.7752Z" fill="#263238"/>
<path d="M45.5038 9.30555V6.30225H49.4553V9.30555H45.5038ZM45.5804 24.3065V11.287H49.4145L49.44 24.3065H45.5804Z" fill="#263238"/>
<path d="M58.165 24.8305C56.6334 24.8305 55.5358 24.4674 54.8006 23.7464C54.4164 23.3417 54.1195 22.86 53.9287 22.3322C53.738 21.8044 53.6576 21.242 53.6928 20.6808V14.0777H51.7936V11.1055H53.6928V7.47461H57.7004V11.1055H60.5492V14.0777H57.7004V20.1829C57.6716 20.5417 57.7713 20.8991 57.9812 21.1892C58.1073 21.3094 58.2573 21.4008 58.4211 21.4572C58.585 21.5135 58.7588 21.5336 58.9308 21.5159C59.2197 21.5107 59.5059 21.4582 59.7783 21.3603C60.0539 21.2704 60.3139 21.1374 60.5492 20.9661V24.3066C60.1839 24.5013 59.7913 24.6377 59.3852 24.7112C58.9828 24.7879 58.5744 24.8279 58.165 24.8305Z" fill="#263238"/>
<path d="M68.4625 24.6955C67.7246 24.7066 66.9874 24.6423 66.2621 24.5036C65.6169 24.371 64.9998 24.1234 64.4395 23.7723C63.9169 23.4313 63.4952 22.9527 63.2193 22.3873C62.9081 21.7059 62.7594 20.9595 62.7854 20.2088C62.7722 19.4637 62.948 18.7277 63.2959 18.0717C63.6444 17.4468 64.1813 16.9522 64.8275 16.6608C65.6456 16.304 66.5313 16.1357 67.421 16.168C67.9909 16.1649 68.5593 16.2258 69.116 16.3496C69.6262 16.4565 70.1229 16.6219 70.5965 16.8424C70.9681 17.0162 71.3122 17.2452 71.6176 17.5219L71.7707 19.3996C71.3871 19.174 70.9724 19.0079 70.5404 18.9068C70.0393 18.7817 69.5247 18.7208 69.0088 18.7252C68.3758 18.679 67.7424 18.8081 67.1759 19.0987C66.9838 19.2263 66.8286 19.4036 66.7263 19.6124C66.624 19.8212 66.5783 20.0539 66.5939 20.2866C66.5906 20.6061 66.6911 20.9179 66.8798 21.1735C67.073 21.4404 67.3343 21.6485 67.6354 21.7752C67.9479 21.9133 68.2851 21.984 68.6259 21.9827C69.2423 22.014 69.8598 21.9528 70.4587 21.8012C70.613 21.7566 70.7478 21.6598 70.8406 21.5268C70.9335 21.3938 70.9788 21.2326 70.9692 21.0698V16.2044C70.9975 15.873 70.9425 15.5398 70.8094 15.2358C70.6764 14.9319 70.4696 14.6673 70.2085 14.4667C69.5618 14.0775 68.8142 13.8966 68.0643 13.948C67.29 13.9518 66.5219 14.0886 65.7924 14.3526C65.1226 14.5734 64.4931 14.9046 63.929 15.3329V11.8887C64.5701 11.5315 65.2576 11.2678 65.9711 11.1055C67.0001 10.8493 68.0566 10.7256 69.116 10.7372C69.5721 10.7412 70.0275 10.7759 70.4791 10.8409C70.9873 10.9161 71.4867 11.0429 71.9699 11.2196C72.468 11.4067 72.9321 11.6767 73.3432 12.0184C73.7748 12.38 74.1233 12.8333 74.3643 13.3463C74.6384 13.9796 74.7692 14.6674 74.7472 15.3589V21.5833C74.7597 21.9219 74.6995 22.2593 74.5708 22.5719C74.4421 22.8845 74.2479 23.1649 74.0018 23.3936C73.3864 23.9146 72.6469 24.2617 71.8575 24.3999C70.7394 24.6207 69.6013 24.7199 68.4625 24.6955Z" fill="#263238"/>
<path d="M81.9404 24.3065H78.1421V6.12073H81.9404V24.3065Z" fill="#263238"/>
</svg>
